<svg width="71" height="20" viewBox="0 0 71 20" fill="none" xmlns="http://www.w3.org/2000/svg">
<path d="M31.4167 16.126C30.7447 16.126 30.1473 15.9953 29.6247 15.734C29.1113 15.4633 28.71 15.0853 28.4207 14.6C28.1407 14.1053 28.0007 13.5407 28.0007 12.906V9.28C28.0007 8.64533 28.1407 8.09 28.4207 7.614C28.71 7.12867 29.1113 6.75533 29.6247 6.494C30.1473 6.22333 30.7447 6.088 31.4167 6.088C32.0887 6.088 32.6813 6.21867 33.1947 6.48C33.708 6.732 34.1047 7.09133 34.3847 7.558C34.674 8.02467 34.8187 8.566 34.8187 9.182V9.196C34.8187 9.24267 34.8047 9.28 34.7767 9.308C34.7487 9.336 34.716 9.35 34.6787 9.35L33.6147 9.406C33.5213 9.406 33.4747 9.364 33.4747 9.28V9.238C33.4747 8.64067 33.288 8.16 32.9147 7.796C32.5413 7.432 32.042 7.25 31.4167 7.25C30.7913 7.25 30.2873 7.432 29.9047 7.796C29.5313 8.16 29.3447 8.64067 29.3447 9.238V12.962C29.3447 13.5593 29.5313 14.04 29.9047 14.404C30.2873 14.768 30.7913 14.95 31.4167 14.95C32.042 14.95 32.5413 14.768 32.9147 14.404C33.288 14.04 33.4747 13.5593 33.4747 12.962V12.934C33.4747 12.85 33.5213 12.808 33.6147 12.808L34.6787 12.864C34.772 12.864 34.8187 12.9107 34.8187 13.004C34.8187 13.62 34.674 14.166 34.3847 14.642C34.1047 15.1087 33.708 15.4727 33.1947 15.734C32.6813 15.9953 32.0887 16.126 31.4167 16.126ZM39.7806 8.776C40.5459 8.776 41.1526 9 41.6006 9.448C42.0486 9.88667 42.2726 10.484 42.2726 11.24V15.86C42.2726 15.9533 42.2259 16 42.1326 16H41.0686C40.9752 16 40.9286 15.9533 40.9286 15.86V11.506C40.9286 11.0393 40.7932 10.6613 40.5226 10.372C40.2519 10.0827 39.8926 9.938 39.4446 9.938C39.0059 9.938 38.6466 10.0827 38.3666 10.372C38.0866 10.6613 37.9466 11.0347 37.9466 11.492V15.86C37.9466 15.9533 37.8999 16 37.8066 16H36.7426C36.6492 16 36.6026 15.9533 36.6026 15.86V6.34C36.6026 6.24667 36.6492 6.2 36.7426 6.2H37.8066C37.8999 6.2 37.9466 6.24667 37.9466 6.34V9.518C37.9466 9.53667 37.9512 9.55067 37.9606 9.56C37.9792 9.56933 37.9932 9.56467 38.0026 9.546C38.4039 9.03267 38.9966 8.776 39.7806 8.776ZM46.7944 8.762C47.3638 8.762 47.8584 8.86467 48.2784 9.07C48.7078 9.266 49.0344 9.546 49.2584 9.91C49.4918 10.2647 49.6084 10.6707 49.6084 11.128V15.86C49.6084 15.9533 49.5618 16 49.4684 16H48.4044C48.3111 16 48.2644 15.9533 48.2644 15.86V15.356C48.2644 15.3093 48.2411 15.3 48.1944 15.328C47.9518 15.58 47.6531 15.776 47.2984 15.916C46.9531 16.0467 46.5658 16.112 46.1364 16.112C45.4458 16.112 44.8718 15.9393 44.4144 15.594C43.9664 15.2393 43.7424 14.7073 43.7424 13.998C43.7424 13.27 43.9944 12.7007 44.4984 12.29C45.0118 11.87 45.7258 11.66 46.6404 11.66H48.2084C48.2458 11.66 48.2644 11.6413 48.2644 11.604V11.226C48.2644 10.8153 48.1431 10.498 47.9004 10.274C47.6671 10.0407 47.3078 9.924 46.8224 9.924C46.4304 9.924 46.1084 10.0033 45.8564 10.162C45.6138 10.3113 45.4644 10.5167 45.4084 10.778C45.3804 10.8713 45.3244 10.9133 45.2404 10.904L44.1064 10.75C44.0131 10.7313 43.9711 10.694 43.9804 10.638C44.0551 10.0873 44.3491 9.63933 44.8624 9.294C45.3758 8.93933 46.0198 8.762 46.7944 8.762ZM46.4304 14.978C46.9251 14.978 47.3544 14.8473 47.7184 14.586C48.0824 14.3247 48.2644 13.9933 48.2644 13.592V12.766C48.2644 12.7287 48.2458 12.71 48.2084 12.71H46.8924C46.3418 12.71 45.9031 12.8173 45.5764 13.032C45.2498 13.2467 45.0864 13.5453 45.0864 13.928C45.0864 14.2733 45.2078 14.5347 45.4504 14.712C45.7024 14.8893 46.0291 14.978 46.4304 14.978ZM54.8412 9.84C54.8412 9.93333 54.7945 9.98 54.7012 9.98H53.1892C53.1518 9.98 53.1332 9.99867 53.1332 10.036V13.746C53.1332 14.138 53.2218 14.4227 53.3992 14.6C53.5765 14.768 53.8518 14.852 54.2252 14.852H54.6312C54.7245 14.852 54.7712 14.8987 54.7712 14.992V15.86C54.7712 15.9533 54.7245 16 54.6312 16C54.3325 16.0187 54.1178 16.028 53.9872 16.028C53.2778 16.028 52.7412 15.902 52.3772 15.65C52.0225 15.3887 51.8452 14.9127 51.8452 14.222V10.036C51.8452 9.99867 51.8265 9.98 51.7892 9.98H50.9352C50.8418 9.98 50.7952 9.93333 50.7952 9.84V9.014C50.7952 8.92067 50.8418 8.874 50.9352 8.874H51.7892C51.8265 8.874 51.8452 8.85533 51.8452 8.818V7.166C51.8452 7.07267 51.8918 7.026 51.9852 7.026H52.9932C53.0865 7.026 53.1332 7.07267 53.1332 7.166V8.818C53.1332 8.85533 53.1518 8.874 53.1892 8.874H54.7012C54.7945 8.874 54.8412 8.92067 54.8412 9.014V9.84ZM57.3071 7.754C57.0458 7.754 56.8311 7.67 56.6631 7.502C56.4951 7.334 56.4111 7.11933 56.4111 6.858C56.4111 6.59667 56.4951 6.382 56.6631 6.214C56.8311 6.046 57.0458 5.962 57.3071 5.962C57.5685 5.962 57.7831 6.046 57.9511 6.214C58.1191 6.382 58.2031 6.59667 58.2031 6.858C58.2031 7.11933 58.1191 7.334 57.9511 7.502C57.7831 7.67 57.5685 7.754 57.3071 7.754ZM56.7471 15.986C56.6538 15.986 56.6071 15.9393 56.6071 15.846V9.014C56.6071 8.92067 56.6538 8.874 56.7471 8.874H57.8111C57.9045 8.874 57.9511 8.92067 57.9511 9.014V15.846C57.9511 15.9393 57.9045 15.986 57.8111 15.986H56.7471ZM63.1995 7.376C62.7328 7.376 62.4155 7.46467 62.2475 7.642C62.0795 7.81933 61.9955 8.15533 61.9955 8.65V8.818C61.9955 8.85533 62.0142 8.874 62.0515 8.874H63.5215C63.6148 8.874 63.6615 8.92067 63.6615 9.014V9.966C63.6615 10.0593 63.6148 10.106 63.5215 10.106H62.0515C62.0142 10.106 61.9955 10.1247 61.9955 10.162V15.86C61.9955 15.9533 61.9488 16 61.8555 16H60.7915C60.6982 16 60.6515 15.9533 60.6515 15.86V10.162C60.6515 10.1247 60.6328 10.106 60.5955 10.106H59.6575C59.5642 10.106 59.5175 10.0593 59.5175 9.966V9.014C59.5175 8.92067 59.5642 8.874 59.6575 8.874H60.5955C60.6328 8.874 60.6515 8.85533 60.6515 8.818V8.566C60.6515 7.95 60.7215 7.474 60.8615 7.138C61.0108 6.802 61.2582 6.564 61.6035 6.424C61.9488 6.27467 62.4342 6.2 63.0595 6.2H63.5355C63.6288 6.2 63.6755 6.24667 63.6755 6.34V7.236C63.6755 7.32933 63.6288 7.376 63.5355 7.376H63.1995ZM64.9941 18.786C64.9288 18.786 64.8961 18.7393 64.8961 18.646V17.82C64.8961 17.7267 64.9428 17.68 65.0361 17.68H65.0641C65.4375 17.6707 65.7315 17.624 65.9461 17.54C66.1608 17.456 66.3381 17.2973 66.4781 17.064C66.6181 16.84 66.7535 16.4993 66.8841 16.042C66.8935 16.0327 66.8935 16.0187 66.8841 16C66.8841 15.972 66.8841 15.958 66.8841 15.958L64.5461 9.028L64.5321 8.972C64.5321 8.90667 64.5741 8.874 64.6581 8.874H65.7921C65.8761 8.874 65.9321 8.91133 65.9601 8.986L67.5421 14.264C67.5515 14.2827 67.5655 14.292 67.5841 14.292C67.6028 14.292 67.6168 14.2827 67.6261 14.264L69.1941 8.986C69.2221 8.91133 69.2781 8.874 69.3621 8.874H70.4681C70.5708 8.874 70.6081 8.92533 70.5801 9.028L68.0321 16.49C67.8175 17.134 67.6028 17.61 67.3881 17.918C67.1735 18.2353 66.8935 18.4593 66.5481 18.59C66.2028 18.7207 65.7175 18.786 65.0921 18.786H64.9941Z" fill="white"/>
<path d="M6.7923 19.2008C4.66496 19.2008 2.99348 18.5638 1.77785 17.2898C0.592617 15.9855 0 14.1807 0 11.8754C0 9.60039 0.48625 7.56808 1.45875 5.77844C2.43125 3.98879 3.76844 2.5783 5.47031 1.54698C7.17218 0.515661 9.10199 0 11.2597 0C12.7185 0 13.8733 0.242665 14.7242 0.727993C15.5752 1.21332 16.0007 1.88065 16.0007 2.72997C16.0007 3.48829 15.636 4.23145 14.9066 4.95945C14.6331 5.23244 14.2684 5.49027 13.8125 5.73294C13.3871 5.94527 13.0528 6.05143 12.8096 6.05143C12.5361 6.05143 12.3082 5.94527 12.1259 5.73294C11.8219 5.39927 11.4269 5.08078 10.9406 4.77745C10.4544 4.47412 9.77058 4.32245 8.88925 4.32245C7.40011 4.32245 6.18449 4.83811 5.24238 5.86944C4.30027 6.87042 3.82922 8.18991 3.82922 9.82789C3.82922 11.3142 4.25469 12.5124 5.10562 13.4224C5.95656 14.3323 7.08101 14.7873 8.47898 14.7873C9.20836 14.7873 9.99851 14.666 10.8494 14.4233C11.7308 14.1503 12.5057 13.7712 13.1743 13.2859C13.5086 12.9825 13.8581 12.8309 14.2228 12.8309C14.8306 12.8309 15.1345 13.21 15.1345 13.9683C15.1345 14.9693 14.6331 15.9248 13.6302 16.8348C12.8704 17.5325 11.8523 18.1088 10.5759 18.5638C9.32992 18.9885 8.06871 19.2008 6.7923 19.2008Z" fill="#001815"/>
<path d="M6.82675 18.7436C4.76019 18.7436 3.13646 18.1218 1.95557 16.8781C0.804201 15.6049 0.228516 13.843 0.228516 11.5926C0.228516 9.37181 0.700872 7.38789 1.64559 5.64085C2.5903 3.89382 3.88928 2.51692 5.54253 1.51015C7.19578 0.503383 9.07045 0 11.1665 0C12.5836 0 13.7054 0.236887 14.5321 0.71066C15.3587 1.18443 15.772 1.83587 15.772 2.66497C15.772 3.40524 15.4177 4.13071 14.7092 4.84136C14.4435 5.10786 14.0892 5.35955 13.6464 5.59644C13.2331 5.80371 12.9083 5.90735 12.6722 5.90735C12.4065 5.90735 12.1851 5.80371 12.0079 5.59644C11.7127 5.27072 11.3289 4.95981 10.8565 4.6637C10.3842 4.36759 9.71994 4.21954 8.86379 4.21954C7.4172 4.21954 6.2363 4.72292 5.32111 5.72969C4.40592 6.70684 3.94833 7.99491 3.94833 9.59389C3.94833 11.0448 4.36164 12.2144 5.18826 13.1028C6.01489 13.9911 7.10721 14.4353 8.46524 14.4353C9.17378 14.4353 9.94135 14.3168 10.768 14.0799C11.6241 13.8134 12.3769 13.4433 13.0264 12.9695C13.3512 12.6734 13.6907 12.5254 14.045 12.5254C14.6354 12.5254 14.9306 12.8955 14.9306 13.6358C14.9306 14.6129 14.4435 15.5457 13.4693 16.434C12.7312 17.115 11.7422 17.6776 10.5023 18.1218C9.29186 18.5364 8.06669 18.7436 6.82675 18.7436Z" fill="white"/>
</svg>
